<?xml version="1.0" standalone="no"?>
<!DOCTYPE svg PUBLIC "-//W3C//DTD SVG 20010904//EN"
 "http://www.w3.org/TR/2001/REC-SVG-20010904/DTD/svg10.dtd">
<svg version="1.0" xmlns="http://www.w3.org/2000/svg"
 width="1910.000000pt" height="1910.000000pt" viewBox="0 0 1910.000000 1910.000000"
 preserveAspectRatio="xMidYMid meet">
<metadata>
Created by potrace 1.14, written by Peter Selinger 2001-2017
</metadata>
<g transform="translate(0.000000,1910.000000) scale(0.100000,-0.100000)"
fill="#000000" stroke="none">
<path d="M0 9550 l0 -9550 9550 0 9550 0 0 9550 0 9550 -9550 0 -9550 0 0
-9550z m8363 2630 c38 -1 37 69 37 -2475 0 -1715 -3 -2462 -10 -2469 -8 -8
-360 -12 -1129 -14 -1085 -3 -1118 -2 -1134 16 -16 18 -17 106 -17 1326 0 873
4 1314 10 1327 10 18 29 19 558 19 413 0 551 3 560 12 9 9 12 271 12 1118 0
869 3 1110 13 1123 11 15 58 17 537 19 289 2 531 2 538 1 8 -2 19 -3 25 -3z
m4610 -12 c16 -8 17 -135 17 -2456 0 -2098 -2 -2451 -14 -2468 -14 -19 -39
-19 -1133 -22 l-1119 -3 -27 25 -27 25 2 1306 c3 1285 3 1307 23 1321 16 12
104 14 548 14 463 -1 533 1 553 15 l24 15 0 1110 c0 876 3 1111 13 1117 12 8
1050 21 1097 14 14 -2 33 -8 43 -13z"/>
</g>
</svg>
