<?xml version="1.0" standalone="no"?>
<!DOCTYPE svg PUBLIC "-//W3C//DTD SVG 20010904//EN"
 "http://www.w3.org/TR/2001/REC-SVG-20010904/DTD/svg10.dtd">
<svg version="1.0" xmlns="http://www.w3.org/2000/svg"
 width="719.000000pt" height="719.000000pt" viewBox="0 0 719.000000 719.000000"
 preserveAspectRatio="xMidYMid meet">
<metadata>
Created by potrace 1.14, written by Peter Selinger 2001-2017
</metadata>
<g transform="translate(0.000000,719.000000) scale(0.100000,-0.100000)"
fill="#000000" stroke="none">
<path d="M4219 4395 c-2 -2 -24 -6 -49 -10 -321 -46 -594 -272 -670 -555 -7
-25 -14 -54 -17 -65 -3 -11 -7 -78 -9 -150 -4 -189 31 -313 128 -455 154 -225
392 -346 698 -355 361 -11 663 154 808 442 60 117 77 202 76 368 0 138 -17
214 -69 320 -55 114 -62 123 -155 219 -110 114 -285 202 -460 232 -33 6 -277
14 -281 9z m253 -447 c127 -59 203 -196 197 -357 -8 -219 -135 -362 -326 -368
-161 -4 -280 79 -333 233 -27 79 -23 236 9 317 30 75 109 156 183 185 77 30
193 26 270 -10z"/>
<path d="M316 4350 c-3 -8 -4 -352 -4 -763 l1 -748 451 1 c434 1 455 2 551 25
128 29 188 53 284 113 67 41 164 133 193 181 12 20 25 38 29 41 17 13 70 148
84 217 31 144 22 323 -20 448 -20 59 -76 165 -87 165 -5 0 -8 6 -8 13 0 18
-121 134 -180 173 -91 61 -189 99 -335 130 -59 12 -188 17 -552 18 -351 1
-404 -1 -407 -14z m898 -422 c61 -29 124 -86 150 -137 37 -70 50 -193 32 -288
-15 -80 -70 -162 -141 -211 -52 -35 -134 -50 -284 -51 l-140 -2 -3 28 c-2 15
-2 178 0 361 l3 334 162 -4 c152 -3 166 -5 221 -30z"/>
<path d="M1870 4358 c0 -4 62 -112 139 -240 76 -128 147 -247 157 -265 11 -17
35 -57 54 -90 19 -32 37 -62 40 -68 3 -5 44 -75 92 -155 l87 -145 0 -235 c0
-129 0 -254 0 -277 l1 -43 258 0 257 0 -1 272 -1 273 75 130 c42 72 123 209
180 305 58 96 116 195 130 220 13 25 29 51 35 58 13 16 43 70 59 105 7 15 16
27 20 27 4 0 8 4 8 10 0 5 16 34 35 65 30 47 33 55 18 56 -10 0 -121 1 -246 1
-183 1 -231 -2 -241 -13 -11 -12 -196 -319 -232 -384 -24 -44 -76 -126 -79
-123 -12 13 -125 211 -125 218 0 6 -4 10 -10 10 -5 0 -10 4 -10 9 0 13 -160
281 -168 282 -59 5 -532 2 -532 -3z"/>
<path d="M5459 4362 l-85 -3 0 -759 0 -760 251 0 250 0 0 344 c0 310 1 343 15
328 8 -9 62 -73 119 -142 57 -69 113 -136 125 -150 11 -14 44 -52 71 -85 28
-33 52 -62 55 -65 3 -3 22 -26 43 -52 21 -26 43 -53 50 -60 7 -7 32 -37 55
-65 l44 -53 212 0 213 0 -1 760 c0 682 -1 760 -15 761 -169 5 -481 2 -484 -6
-2 -5 -3 -160 -2 -343 0 -182 -3 -331 -6 -330 -3 2 -30 32 -60 68 -29 36 -61
74 -71 85 -9 11 -81 97 -158 190 -78 94 -160 192 -183 218 -22 26 -52 63 -66
82 -23 30 -32 34 -71 35 -25 1 -83 2 -130 3 -47 1 -124 1 -171 -1z"/>
</g>
</svg>
